<svg width="1728" height="1117" viewBox="0 0 1728 1117" fill="none" xmlns="http://www.w3.org/2000/svg">
<path opacity="0.0144928" d="M1539.41 1978.71C1548.41 1984.16 1561 1980.94 1568.82 1971.19L1827.45 1648.77C1831.26 1644.02 1833.5 1638.23 1833.75 1632.49L1860.06 1018.95C1860.24 1014.73 1859.34 1010.72 1857.44 1007.35L1621.88 589.344C1617.69 581.902 1609.26 578.555 1600.4 580.819L1298.03 658.121C1289.18 660.384 1281.58 667.829 1278.68 677.085L1115.71 1196.98C1114.39 1201.17 1114.13 1205.47 1114.95 1209.44L1233.36 1785.98C1234.47 1791.37 1237.5 1795.82 1241.88 1798.47L1539.41 1978.71Z" stroke="url(#paint0_linear_3_108)" stroke-width="4"/>
<path opacity="0.0289855" d="M1484.74 1980.07C1493.56 1986.19 1506.48 1983.71 1514.79 1974.3L1783.53 1669.96C1787.5 1665.47 1789.95 1659.86 1790.44 1654.2L1842.79 1044.66C1843.15 1040.51 1842.43 1036.51 1840.72 1033.06L1626.23 601.922C1622.38 594.18 1614.05 590.285 1605.03 592.014L1303.96 649.754C1294.94 651.484 1286.97 658.506 1283.68 667.618L1100.52 1175.02C1099.06 1179.07 1098.61 1183.3 1099.24 1187.26L1191.36 1769.09C1192.21 1774.5 1195.01 1779.09 1199.23 1782.02L1484.74 1980.07Z" stroke="url(#paint1_linear_3_108)" stroke-width="4"/>
<path opacity="0.0434783" d="M1430.64 1979.36C1439.24 1986.14 1452.44 1984.45 1461.2 1975.45L1739.1 1689.79C1743.22 1685.55 1745.89 1680.14 1746.61 1674.55L1824.4 1070.76C1824.92 1066.69 1824.39 1062.69 1822.86 1059.17L1629.67 616.311C1626.17 608.289 1617.97 603.843 1608.82 605.015L1309.83 643.339C1300.69 644.511 1292.37 651.075 1288.71 660.016L1086.24 1153.59C1084.63 1157.51 1084.02 1161.65 1084.47 1165.6L1150.47 1750.96C1151.09 1756.38 1153.65 1761.13 1157.7 1764.32L1430.64 1979.36Z" stroke="url(#paint2_linear_3_108)" stroke-width="4"/>
<path opacity="0.057971" d="M1377.21 1976.64C1385.55 1984.06 1398.94 1983.19 1408.12 1974.65L1694.23 1708.22C1698.5 1704.25 1701.37 1699.03 1702.31 1693.52L1804.87 1097.18C1805.56 1093.18 1805.21 1089.2 1803.85 1085.61L1632.12 632.442C1628.99 624.163 1620.95 619.167 1611.71 619.762L1315.57 638.863C1306.34 639.458 1297.71 645.528 1293.68 654.271L1072.84 1132.76C1071.09 1136.54 1070.32 1140.6 1070.58 1144.54L1110.75 1731.67C1111.12 1737.1 1113.46 1741.98 1117.33 1745.43L1377.21 1976.64Z" stroke="url(#paint3_linear_3_108)" stroke-width="4"/>
<path opacity="0.0724638" d="M1324.53 1971.97C1332.56 1980 1346.07 1980 1355.63 1971.95L1649 1725.23C1653.4 1721.53 1656.46 1716.51 1657.63 1711.08L1784.21 1123.85C1785.06 1119.93 1784.88 1115.95 1783.69 1112.3L1633.53 650.246C1630.76 641.732 1622.92 636.191 1613.65 636.194L1321.07 636.305C1311.8 636.309 1302.91 641.856 1298.52 650.374L1060.28 1112.57C1058.39 1116.22 1057.46 1120.2 1057.56 1124.13L1072.23 1711.31C1072.36 1716.74 1074.47 1721.75 1078.16 1725.45L1324.53 1971.97Z" stroke="url(#paint4_linear_3_108)" stroke-width="4"/>
<path opacity="0.0869565" d="M1272.66 1965.4C1280.35 1974.03 1293.9 1974.9 1303.8 1967.41L1603.46 1740.8C1607.99 1737.38 1611.23 1732.56 1612.62 1727.22L1762.42 1150.7C1763.43 1146.84 1763.42 1142.86 1762.4 1139.15L1633.82 669.645C1631.43 660.919 1623.84 654.844 1614.57 654.245L1326.26 635.642C1316.99 635.043 1307.87 640.04 1303.14 648.306L1048.51 1093.08C1046.5 1096.6 1045.41 1100.51 1045.34 1104.42L1034.93 1689.94C1034.84 1695.2 1036.6 1700.19 1039.9 1704.08L1040.22 1704.45L1272.66 1965.4Z" stroke="url(#paint5_linear_3_108)" stroke-width="4"/>
<path opacity="0.101449" d="M1221.7 1957.02C1228.99 1966.2 1242.49 1967.96 1252.69 1961.07L1557.69 1754.91C1562.33 1751.77 1565.76 1747.16 1567.37 1741.9L1739.51 1177.64C1740.67 1173.84 1740.83 1169.87 1739.98 1166.09L1632.96 690.561C1630.95 681.648 1623.63 675.052 1614.41 673.848L1331.06 636.839C1321.84 635.635 1312.53 640.059 1307.47 648.049L1037.52 1074.34C1035.37 1077.73 1034.12 1081.56 1033.89 1085.48L998.901 1667.66C998.575 1673.08 1000.22 1678.36 1003.54 1682.53L1221.7 1957.02Z" stroke="url(#paint6_linear_3_108)" stroke-width="4"/>
<path opacity="0.115942" d="M1171.7 1946.9C1178.57 1956.59 1191.92 1959.24 1202.36 1952.98L1511.75 1767.55C1516.5 1764.71 1520.11 1760.3 1521.92 1755.13L1715.48 1204.6C1716.79 1200.87 1717.12 1196.89 1716.43 1193.05L1630.87 712.909C1629.26 703.834 1622.26 696.739 1613.14 694.93L1335.37 639.859C1326.25 638.05 1316.8 641.884 1311.43 649.573L1027.24 1056.4C1024.96 1059.66 1023.56 1063.42 1023.16 1067.33L964.155 1644.54C963.6 1649.97 965.011 1655.37 968.134 1659.77L1171.7 1946.9Z" stroke="url(#paint7_linear_3_108)" stroke-width="4"/>
<path opacity="0.130435" d="M1122.72 1935.12C1129.13 1945.26 1142.25 1948.78 1152.87 1943.2L1465.71 1778.72C1470.56 1776.17 1474.34 1771.98 1476.37 1766.9L1690.35 1231.51C1691.81 1227.84 1692.31 1223.86 1691.79 1219.94L1627.53 736.601C1626.31 727.391 1619.66 719.822 1610.68 717.417L1339.14 644.655C1330.16 642.25 1320.62 645.482 1314.95 652.846L1017.64 1039.3C1015.23 1042.43 1013.66 1046.13 1013.1 1050.04L930.717 1620.69C929.935 1626.11 931.11 1631.63 934.033 1636.26L1122.72 1935.12Z" stroke="url(#paint8_linear_3_108)" stroke-width="4"/>
<path opacity="0.144928" d="M1074.82 1921.75C1080.74 1932.3 1093.55 1936.66 1104.29 1931.77L1419.64 1788.41C1424.57 1786.17 1428.52 1782.19 1430.77 1777.2L1664.13 1258.29C1665.75 1254.68 1666.42 1250.69 1666.06 1246.7L1622.89 761.552C1622.06 752.232 1615.8 744.218 1607.02 741.231L1342.28 651.181C1333.5 648.194 1323.91 650.818 1317.97 657.835L1008.67 1023.09C1006.12 1026.09 1004.4 1029.73 1003.67 1033.64L898.603 1596.19C897.592 1601.6 898.53 1607.24 901.246 1612.08L1074.82 1921.75Z" stroke="url(#paint9_linear_3_108)" stroke-width="4"/>
<path opacity="0.15942" d="M1028.05 1906.87C1033.45 1917.78 1045.86 1922.93 1056.68 1918.77L1373.59 1796.63C1378.61 1794.7 1382.72 1790.94 1385.18 1786.04L1636.84 1284.87C1638.62 1281.32 1639.46 1277.32 1639.27 1273.25L1616.9 787.665C1616.47 778.261 1610.63 769.837 1602.09 766.287L1344.74 659.381C1336.19 655.831 1326.6 657.846 1320.4 664.495L1000.28 1007.81C997.606 1010.68 995.724 1014.25 994.824 1018.17L867.826 1571.12C866.585 1576.53 867.28 1582.28 869.786 1587.34L1028.05 1906.87Z" stroke="url(#paint10_linear_3_108)" stroke-width="4"/>
<path opacity="0.173913" d="M982.446 1890.58C987.314 1901.78 999.249 1907.68 1010.08 1904.24L1327.64 1803.38C1332.73 1801.76 1337 1798.23 1339.68 1793.43L1608.5 1311.18C1610.44 1307.69 1611.46 1303.67 1611.44 1299.53L1609.55 814.847C1609.51 805.387 1604.12 796.593 1595.85 792.505L1346.45 669.2C1338.18 665.112 1328.64 666.522 1322.2 672.782L992.441 993.49C989.624 996.23 987.577 999.74 986.503 1003.67L838.395 1545.6C836.921 1550.99 837.369 1556.86 839.657 1562.12L982.446 1890.58Z" stroke="url(#paint11_linear_3_108)" stroke-width="4"/>
<path opacity="0.188406" d="M938.053 1872.96C942.374 1884.39 953.769 1890.97 964.549 1888.27L1281.84 1808.67C1286.99 1807.38 1291.43 1804.08 1294.32 1799.38L1579.13 1337.15C1581.25 1333.71 1582.45 1329.67 1582.61 1325.45L1600.79 843C1601.15 833.511 1596.23 824.388 1588.28 819.793L1347.36 680.575C1339.41 675.98 1329.95 676.795 1323.29 682.647L985.09 980.172C982.131 982.775 979.911 986.223 978.659 990.16L810.312 1519.69C808.601 1525.07 808.796 1531.05 810.862 1536.52L938.053 1872.96Z" stroke="url(#paint12_linear_3_108)" stroke-width="4"/>
<path opacity="0.202899" d="M894.903 1854.09C898.67 1865.69 909.471 1872.89 920.148 1870.92L1236.26 1812.52C1241.46 1811.56 1246.05 1808.5 1249.17 1803.91L1548.77 1362.7C1551.06 1359.32 1552.45 1355.27 1552.79 1350.96L1590.61 872.027C1591.36 862.536 1586.94 853.129 1579.33 848.061L1347.41 693.445C1339.81 688.377 1330.48 688.609 1323.63 694.036L978.181 967.885C975.077 970.346 972.68 973.73 971.243 977.679L783.578 1493.51C781.627 1498.88 781.563 1504.96 783.399 1510.62L894.903 1854.09Z" stroke="url(#paint13_linear_3_108)" stroke-width="4"/>
<path opacity="0.217391" d="M853.028 1834.05C856.236 1845.76 866.399 1853.5 876.92 1852.25L1190.95 1814.95C1196.2 1814.33 1200.94 1811.51 1204.28 1807.04L1517.44 1387.77C1519.92 1384.46 1521.51 1380.38 1522.03 1375.99L1579 901.825C1580.14 892.36 1576.22 882.716 1568.99 877.212L1346.57 707.745C1339.34 702.24 1330.17 701.906 1323.15 706.892L971.665 956.659C968.412 958.971 965.83 962.288 964.2 966.249L758.188 1467.15C755.991 1472.49 755.66 1478.67 757.259 1484.51L853.028 1834.05Z" stroke="url(#paint14_linear_3_108)" stroke-width="4"/>
<path opacity="0.231884" d="M812.452 1812.94C815.105 1824.7 824.599 1832.91 834.913 1832.36L1145.98 1815.97C1151.09 1815.7 1155.85 1813.29 1159.38 1809.19L1159.72 1808.79L1485.18 1412.29C1487.84 1409.05 1489.64 1404.95 1490.36 1400.48L1565.93 932.296C1567.45 922.883 1564.05 913.049 1557.22 907.148L1344.78 723.405C1337.96 717.504 1328.98 716.625 1321.81 721.156L965.492 946.519C962.086 948.673 959.311 951.919 957.482 955.89L734.131 1440.69C731.683 1446.01 731.078 1452.28 732.434 1458.29L812.452 1812.94Z" stroke="url(#paint15_linear_3_108)" stroke-width="4"/>
<path opacity="0.246377" d="M773.198 1790.83C775.304 1802.58 784.106 1811.18 794.169 1811.33L1101.41 1815.62C1106.69 1815.7 1111.74 1813.4 1115.54 1809.19L1452.02 1436.2C1454.88 1433.03 1456.89 1428.92 1457.82 1424.36L1551.41 963.334C1553.3 954.001 1550.42 944.027 1544.01 937.77L1342.01 740.36C1335.61 734.102 1326.85 732.699 1319.56 736.763L959.608 937.487C956.048 939.473 953.074 942.641 951.035 946.62L711.393 1414.24C708.69 1419.52 707.802 1425.88 708.908 1432.05L773.198 1790.83Z" stroke="url(#paint16_linear_3_108)" stroke-width="4"/>
<path opacity="0.26087" d="M735.287 1767.82C736.857 1779.51 744.957 1788.43 754.727 1789.23L1057.28 1813.93C1062.56 1814.36 1067.75 1812.34 1071.78 1808.28L1417.99 1459.44C1421.06 1456.35 1423.3 1452.23 1424.44 1447.59L1535.42 994.84C1537.68 985.614 1535.32 975.546 1529.35 968.974L1338.22 758.537C1332.25 751.965 1323.74 750.062 1316.35 753.648L953.964 929.585C950.247 931.389 947.064 934.471 944.806 938.454L689.956 1387.89C686.992 1393.12 685.814 1399.55 686.663 1405.88L735.287 1767.82Z" stroke="url(#paint17_linear_3_108)" stroke-width="4"/>
<path opacity="0.275362" d="M698.731 1744C699.781 1755.57 707.179 1764.74 716.62 1766.16L1013.65 1810.93C1018.92 1811.72 1024.24 1809.99 1028.5 1806.1L1383.15 1481.94C1386.43 1478.94 1388.91 1474.82 1390.27 1470.1L1517.97 1026.71C1520.59 1017.62 1518.74 1007.5 1513.22 1000.65L1333.38 777.865C1327.85 771.019 1319.61 768.642 1312.15 771.741L948.505 922.823C944.63 924.433 941.233 927.419 938.745 931.399L669.797 1361.73C666.567 1366.9 665.091 1373.39 665.677 1379.85L698.731 1744Z" stroke="url(#paint18_linear_3_108)" stroke-width="4"/>
<path opacity="0.289855" d="M663.543 1719.45C664.094 1730.86 670.796 1740.2 679.878 1742.22L970.568 1806.65C975.802 1807.81 981.247 1806.39 985.738 1802.67L1347.54 1503.65C1351.04 1500.76 1353.76 1496.64 1355.36 1491.84L1499.07 1058.84C1502.03 1049.91 1500.7 1039.79 1495.62 1032.71L1327.46 798.272C1322.38 791.192 1314.43 788.366 1306.92 790.972L943.18 917.22C939.148 918.619 935.527 921.495 932.801 925.465L650.888 1335.86C647.388 1340.95 645.607 1347.49 645.924 1354.07L663.543 1719.45Z" stroke="url(#paint19_linear_3_108)" stroke-width="4"/>
<path opacity="0.304348" d="M629.734 1694.25C629.807 1705.47 635.827 1714.93 644.524 1717.49L928.083 1801.15C933.267 1802.68 938.828 1801.57 943.55 1798.05L1311.19 1524.51C1314.91 1521.74 1317.9 1517.64 1319.74 1512.77L1478.72 1091.14C1482.02 1082.38 1481.19 1072.3 1476.56 1065.03L1320.43 819.681C1315.8 812.406 1308.16 809.158 1300.63 811.266L937.937 912.78C933.749 913.952 929.899 916.704 926.923 920.652L633.197 1310.35C629.425 1315.35 627.332 1321.91 627.375 1328.6L629.734 1694.25Z" stroke="url(#paint20_linear_3_108)" stroke-width="4"/>
<path opacity="0.318841" d="M597.308 1668.51C596.926 1679.49 602.284 1689.01 610.576 1692.09L886.239 1794.46C891.355 1796.36 897.02 1795.58 901.968 1792.28L1274.16 1544.48C1278.12 1541.84 1281.38 1537.76 1283.47 1532.84L1456.95 1123.49C1460.57 1114.94 1460.22 1104.94 1456.04 1097.51L1312.28 842.018C1308.1 834.586 1300.77 830.941 1293.24 832.548L932.722 909.51C928.382 910.436 924.295 913.048 921.061 916.961L616.689 1285.3C612.642 1290.19 610.232 1296.76 609.996 1303.54L597.308 1668.51Z" stroke="url(#paint21_linear_3_108)" stroke-width="4"/>
<path opacity="0.333333" d="M566.266 1642.31C565.456 1653.02 570.176 1662.55 578.047 1666.1L845.077 1786.64C850.106 1788.91 855.863 1788.46 861.034 1785.41L1236.5 1563.49C1240.69 1561.02 1244.23 1556.98 1246.58 1552.01L1433.77 1155.8C1437.71 1147.48 1437.82 1137.6 1434.08 1130.04L1302.98 865.207C1299.24 857.651 1292.24 853.634 1284.74 854.74L927.482 907.412C922.996 908.073 918.669 910.525 915.168 914.388L601.324 1260.79C597.002 1265.56 594.269 1272.11 593.752 1278.95L566.266 1642.31Z" stroke="url(#paint22_linear_3_108)" stroke-width="4"/>
<path opacity="0.347826" d="M536.606 1615.74C535.393 1626.15 539.503 1635.66 546.942 1639.64L804.637 1777.73C809.56 1780.36 815.395 1780.27 820.781 1777.48L1198.27 1581.52C1202.69 1579.22 1206.52 1575.25 1209.14 1570.24L1409.22 1187.98C1413.44 1179.91 1414.01 1170.18 1410.7 1162.53L1292.51 889.167C1289.21 881.52 1282.54 877.158 1275.09 877.765L922.166 906.483C917.541 906.86 912.971 909.13 909.196 912.926L587.058 1236.9C582.462 1241.52 579.406 1248.04 578.604 1254.93L536.606 1615.74Z" stroke="url(#paint23_linear_3_108)" stroke-width="4"/>
<path opacity="0.362319" d="M508.323 1588.89C506.735 1598.99 510.263 1608.43 517.265 1612.81L764.953 1767.78C769.751 1770.78 775.648 1771.06 781.24 1768.54L1159.5 1598.51C1164.16 1596.41 1168.29 1592.52 1171.19 1587.49L1383.31 1219.93C1387.81 1212.13 1388.81 1202.57 1385.93 1194.86L1280.87 913.824C1277.99 906.116 1271.67 901.432 1264.3 901.542L916.721 906.718C911.967 906.789 907.154 908.855 903.099 912.564L573.845 1213.71C568.977 1218.17 565.597 1224.62 564.508 1231.54L508.323 1588.89Z" stroke="url(#paint24_linear_3_108)" stroke-width="4"/>
<path opacity="0.376812" d="M481.407 1561.85C479.469 1571.62 482.446 1580.97 489.008 1585.7L726.059 1756.85C730.712 1760.21 736.654 1760.87 742.44 1758.66L1120.27 1614.42C1125.16 1612.56 1129.6 1608.77 1132.78 1603.75L1356.08 1251.55C1360.85 1244.04 1362.25 1234.69 1359.78 1226.94L1268.05 939.098C1265.58 931.354 1259.61 926.371 1252.33 925.99L911.096 908.108C906.226 907.853 901.172 909.689 896.832 913.288L561.633 1191.3C556.499 1195.56 552.796 1201.93 551.421 1208.86L481.407 1561.85Z" stroke="url(#paint25_linear_3_108)" stroke-width="4"/>
<path opacity="0.391304" d="M455.845 1534.72C453.583 1544.15 456.041 1553.37 462.163 1558.43L687.983 1745.01C692.474 1748.72 698.44 1749.76 704.407 1747.88L1080.63 1629.24C1085.75 1627.62 1090.49 1623.97 1093.97 1618.97L1327.58 1282.76C1332.58 1275.56 1334.37 1266.43 1332.31 1258.67L1254.04 964.908C1251.97 957.153 1246.34 951.893 1239.19 951.028L905.241 910.639C900.27 910.038 894.98 911.617 890.355 915.081L550.369 1169.74C544.978 1173.78 540.954 1180.03 539.295 1186.95L455.845 1534.72Z" stroke="url(#paint26_linear_3_108)" stroke-width="4"/>
<path opacity="0.405797" d="M431.621 1507.58C429.058 1516.66 431.026 1525.75 436.712 1531.09L650.751 1732.3C655.062 1736.35 661.033 1737.79 667.163 1736.26L1040.64 1642.92C1045.98 1641.58 1051.02 1638.1 1054.79 1633.14L1297.83 1313.46C1303.06 1306.58 1305.22 1297.7 1303.54 1289.96L1238.83 991.176C1237.15 983.431 1231.88 977.912 1224.87 976.572L899.107 914.293C894.054 913.327 888.537 914.621 883.628 917.923L539.997 1149.09C534.357 1152.88 530.02 1158.99 528.078 1165.87L431.621 1507.58Z" stroke="url(#paint27_linear_3_108)" stroke-width="4"/>
<path opacity="0.42029" d="M408.711 1480.53C405.871 1489.26 407.378 1498.19 412.635 1503.79L614.386 1718.79C618.499 1723.17 624.453 1725.01 630.726 1723.85L1000.36 1655.43C1005.9 1654.41 1011.25 1651.12 1015.31 1646.23L1266.88 1343.58C1272.32 1337.04 1274.82 1328.42 1273.52 1320.7L1222.43 1017.82C1221.13 1010.1 1216.2 1004.35 1209.36 1002.54L892.645 919.049C887.532 917.701 881.799 918.682 876.611 921.793L530.456 1129.42C524.581 1132.94 519.939 1138.87 517.717 1145.7L408.711 1480.53Z" stroke="url(#paint28_linear_3_108)" stroke-width="4"/>
<path opacity="0.434783" d="M387.094 1453.66C383.997 1462.02 385.07 1470.8 389.905 1476.63L578.909 1704.53C582.807 1709.23 588.72 1711.49 595.115 1710.72L959.854 1666.77C965.581 1666.08 971.216 1663.02 975.566 1658.24L1234.79 1373.03C1240.42 1366.84 1243.24 1358.49 1242.3 1350.82L1204.84 1044.76C1203.9 1037.09 1199.33 1031.11 1192.67 1028.86L885.809 924.881C880.659 923.136 874.727 923.777 869.27 926.667L521.686 1110.78C515.591 1114 510.656 1119.74 508.159 1126.48L387.094 1453.66Z" stroke="url(#paint29_linear_3_108)" stroke-width="4"/>
<path opacity="0.449275" d="M366.737 1427.04C363.402 1435.05 364.069 1443.66 368.491 1449.7L544.333 1689.6C548.001 1694.6 553.849 1697.28 560.341 1696.91L919.18 1676.92C924.888 1676.6 930.616 1673.96 935.18 1669.56L935.618 1669.13L1201.6 1401.73C1207.4 1395.9 1210.52 1387.84 1209.93 1380.23L1186.07 1071.92C1185.48 1064.31 1181.26 1058.13 1174.8 1055.43L878.554 931.763C873.394 929.609 867.285 929.881 861.572 932.519L513.622 1093.22C507.327 1096.13 502.111 1101.63 499.345 1108.28L366.737 1427.04Z" stroke="url(#paint30_linear_3_108)" stroke-width="4"/>
<path opacity="0.463768" d="M347.612 1400.77C344.056 1408.44 344.338 1416.87 348.357 1423.09L510.672 1674.05C514.095 1679.34 519.854 1682.43 526.415 1682.49L878.401 1685.86C884.433 1685.92 890.607 1683.41 895.513 1678.91L1167.36 1429.61C1173.31 1424.15 1176.72 1416.38 1176.47 1408.84L1166.13 1099.22C1165.88 1091.68 1162.01 1085.31 1155.76 1082.18L870.839 939.661C865.696 937.089 859.435 936.967 853.483 939.323L506.199 1076.8C499.725 1079.36 494.244 1084.61 491.216 1091.14L347.612 1400.77Z" stroke="url(#paint31_linear_3_108)" stroke-width="4"/>
<path opacity="0.478261" d="M329.68 1374.93C325.917 1382.25 325.835 1390.52 329.462 1396.9L477.938 1657.95C481.103 1663.51 486.744 1667.02 493.345 1667.52L837.581 1693.6C843.724 1694.06 850.134 1691.88 855.3 1687.57L1132.13 1456.6C1138.22 1451.52 1141.89 1444.05 1141.97 1436.58L1145.04 1126.59C1145.11 1119.12 1141.58 1112.57 1135.57 1109.04L862.622 948.539C857.529 945.544 851.146 945.004 844.978 947.048L499.349 1061.56C492.721 1063.75 486.996 1068.71 483.713 1075.1L329.68 1374.93Z" stroke="url(#paint32_linear_3_108)" stroke-width="4"/>
<path opacity="0.492754" d="M312.904 1349.6C308.947 1356.58 308.519 1364.69 311.764 1371.22L446.136 1641.36C449.029 1647.18 454.528 1651.09 461.138 1652.04L796.779 1700.13C802.999 1701.02 809.618 1699.2 815.026 1695.11L1095.97 1482.64C1102.19 1477.94 1106.1 1470.77 1106.49 1463.38L1122.8 1153.94C1123.19 1146.55 1120.01 1139.84 1114.25 1135.91L853.866 958.359C848.853 954.941 842.382 953.964 836.025 955.667L493.007 1047.53C486.251 1049.33 480.301 1053.99 476.772 1060.22L312.904 1349.6Z" stroke="url(#paint33_linear_3_108)" stroke-width="4"/>
<path opacity="0.507246" d="M297.24 1324.86C293.098 1331.52 292.341 1339.46 295.213 1346.12L415.269 1624.34C417.881 1630.39 423.211 1634.71 429.798 1636.11L756.058 1705.45C762.318 1706.78 769.11 1705.35 774.742 1701.51L1058.93 1507.66C1065.26 1503.34 1069.41 1496.48 1070.1 1489.18L1099.45 1181.19C1100.15 1173.9 1097.31 1167.04 1091.8 1162.73L844.536 969.078C839.636 965.241 833.117 963.812 826.602 965.147L487.104 1034.74C480.249 1036.14 474.097 1040.47 470.33 1046.52L297.24 1324.86Z" stroke="url(#paint34_linear_3_108)" stroke-width="4"/>
<path opacity="0.521739" d="M282.642 1300.78C278.324 1307.12 277.249 1314.91 279.758 1321.69L385.34 1606.96C387.66 1613.23 392.793 1617.94 399.325 1619.8L715.473 1709.59C721.734 1711.37 728.664 1710.34 734.494 1706.78L1021.09 1531.6C1027.51 1527.67 1031.88 1521.11 1032.87 1513.91L1075 1208.29C1076 1201.08 1073.5 1194.08 1068.27 1189.41L834.601 980.652C829.848 976.405 823.32 974.514 816.682 975.46L481.571 1023.23C474.648 1024.21 468.318 1028.18 464.324 1034.05L282.642 1300.78Z" stroke="url(#paint35_linear_3_108)" stroke-width="4"/>
<path opacity="0.536232" d="M269.063 1277.44C264.574 1283.47 263.192 1291.12 265.346 1298.01L356.346 1589.29C358.366 1595.75 363.277 1600.84 369.718 1603.15L675.082 1712.55C681.303 1714.78 688.328 1714.19 694.331 1710.93L982.502 1554.41C988.999 1550.88 993.575 1544.62 994.86 1537.51L1049.49 1235.15C1050.77 1228.04 1048.62 1220.9 1043.66 1215.88L824.033 993.036C819.457 988.393 812.965 986.035 806.244 986.574L476.34 1013C469.381 1013.56 462.899 1017.17 458.689 1022.82L269.063 1277.44Z" stroke="url(#paint36_linear_3_108)" stroke-width="4"/>
<path opacity="0.550725" d="M256.448 1254.91C251.793 1260.63 250.111 1268.14 251.917 1275.14L328.283 1571.37C329.995 1578.01 334.66 1583.47 340.979 1586.22L634.936 1714.36C641.076 1717.04 648.153 1716.89 654.3 1713.95L943.234 1576.04C949.796 1572.91 954.571 1566.95 956.141 1559.94L1022.93 1261.7C1024.5 1254.69 1022.69 1247.43 1018.03 1242.07L812.805 1006.18C808.439 1001.16 802.027 998.339 795.262 998.457L471.346 1004.09C464.384 1004.21 457.776 1007.43 453.36 1012.86L256.448 1254.91Z" stroke="url(#paint37_linear_3_108)" stroke-width="4"/>
<path opacity="0.565217" d="M244.747 1233.24C239.927 1238.67 237.95 1246.05 239.412 1253.15L301.143 1553.28C302.542 1560.08 306.936 1565.88 313.099 1569.07L595.088 1715.04C601.104 1718.16 608.187 1718.46 614.447 1715.87L903.355 1596.45C909.968 1593.72 914.932 1588.06 916.784 1581.15L995.367 1287.88C997.219 1280.97 995.748 1273.58 991.387 1267.91L800.896 1020.04C796.768 1014.67 790.482 1011.39 783.715 1011.08L466.521 996.495C459.588 996.176 452.881 999.005 448.271 1004.19L244.747 1233.24Z" stroke="url(#paint38_linear_3_108)" stroke-width="4"/>
<path opacity="0.57971" d="M233.901 1212.51C228.918 1217.65 226.648 1224.9 227.769 1232.11L274.919 1535.08C275.998 1542.01 280.099 1548.14 286.076 1551.75L555.584 1714.62C561.436 1718.16 568.479 1718.91 574.821 1716.69L862.931 1615.6C869.585 1613.27 874.732 1607.91 876.864 1601.1L966.83 1313.61C968.961 1306.8 967.835 1299.31 963.782 1293.33L788.288 1034.55C784.425 1028.86 778.309 1025.14 771.582 1024.4L461.799 990.225C454.929 989.467 448.15 991.895 443.358 996.83L233.901 1212.51Z" stroke="url(#paint39_linear_3_108)" stroke-width="4"/>
<path opacity="0.594203" d="M223.851 1192.78C218.706 1197.62 216.142 1204.75 216.925 1212.06L249.596 1516.82C250.351 1523.86 254.14 1530.29 259.901 1534.31L516.466 1713.12C522.116 1717.06 529.075 1718.27 535.466 1716.42L822.032 1633.46C828.714 1631.52 834.038 1626.46 836.447 1619.75L937.355 1338.84C939.764 1332.13 938.986 1324.54 935.249 1318.27L774.964 1049.68C771.39 1043.69 765.484 1039.56 758.84 1038.39L457.119 985.281C450.343 984.089 443.518 986.11 438.555 990.78L223.851 1192.78Z" stroke="url(#paint40_linear_3_108)" stroke-width="4"/>
<path opacity="0.608696" d="M214.538 1174.08C209.229 1178.64 206.37 1185.66 206.814 1193.06L225.161 1498.57C225.589 1505.7 229.048 1512.41 234.567 1516.81L477.777 1710.59C483.19 1714.9 490.022 1716.55 496.43 1715.08L780.728 1649.99C787.426 1648.45 792.923 1643.69 795.61 1637.09L906.983 1363.5C909.67 1356.9 909.244 1349.21 905.83 1342.67L760.913 1065.38C757.647 1059.13 751.99 1054.6 745.468 1053.01L452.417 981.661C445.766 980.042 438.922 981.654 433.799 986.047L214.538 1174.08Z" stroke="url(#paint41_linear_3_108)" stroke-width="4"/>
<path opacity="0.623188" d="M205.899 1156.48C200.424 1160.75 197.266 1167.66 197.37 1175.15L201.597 1480.38C201.697 1487.59 204.808 1494.54 210.062 1499.29L439.552 1707.05C444.697 1711.7 451.362 1713.77 457.755 1712.69L739.089 1665.17C745.793 1664.03 751.458 1659.57 754.423 1653.08L875.756 1387.53C878.721 1381.04 878.651 1373.26 875.567 1366.47L746.123 1081.58C743.182 1075.1 737.807 1070.21 731.445 1068.22L447.632 979.357C441.135 977.323 434.296 978.527 429.027 982.632L205.899 1156.48Z" stroke="url(#paint42_linear_3_108)" stroke-width="4"/>
<path opacity="0.637681" d="M197.869 1140.02C192.227 1143.99 188.764 1150.8 188.524 1158.37L178.885 1462.31C178.655 1469.56 181.407 1476.74 186.373 1481.82L401.828 1702.53C406.678 1707.5 413.141 1709.97 419.49 1709.28L697.188 1678.98C703.885 1678.24 709.714 1674.08 712.959 1667.71L843.718 1410.88C846.963 1404.51 847.255 1396.65 844.508 1389.62L730.589 1098.24C727.985 1091.58 722.921 1086.36 716.752 1083.99L442.705 978.358C436.389 975.924 429.579 976.722 424.177 980.529L197.869 1140.02Z" stroke="url(#paint43_linear_3_108)" stroke-width="4"/>
<path opacity="0.652174" d="M190.383 1124.73C184.574 1128.42 180.799 1135.11 180.21 1142.76L157.004 1444.42C156.444 1451.7 158.826 1459.06 163.487 1464.45L364.635 1697.08C369.17 1702.33 375.4 1705.17 381.675 1704.86L655.093 1691.4C661.771 1691.07 667.762 1687.21 671.29 1680.96L810.914 1433.49C814.441 1427.24 815.1 1419.32 812.697 1412.07L714.303 1115.32C712.045 1108.51 707.317 1103 701.37 1100.26L437.581 978.651C431.468 975.833 424.71 976.23 419.187 979.73L190.383 1124.73Z" stroke="url(#paint44_linear_3_108)" stroke-width="4"/>
<path opacity="0.666667" d="M183.375 1110.66C177.396 1114.04 173.303 1120.62 172.358 1128.35L135.931 1426.75C135.041 1434.04 137.045 1441.56 141.387 1447.22L328.005 1690.73C332.208 1696.22 338.178 1699.41 344.354 1699.48L612.876 1702.43C619.525 1702.51 625.673 1698.95 629.484 1692.83L777.393 1455.32C781.204 1449.2 782.237 1441.22 780.184 1433.76L697.265 1132.76C695.358 1125.84 690.983 1120.08 685.283 1117L432.204 980.217C426.316 977.035 419.63 977.037 413.998 980.222L183.375 1110.66Z" stroke="url(#paint45_linear_3_108)" stroke-width="4"/>
<path opacity="0.681159" d="M176.777 1097.83C170.629 1100.91 166.207 1107.36 164.901 1115.16L115.64 1409.37C114.423 1416.64 116.043 1424.28 120.053 1430.19L291.965 1683.52C295.824 1689.21 301.512 1692.72 307.565 1693.16L570.606 1712.07C577.212 1712.55 583.515 1709.3 587.613 1703.32L743.204 1476.31C747.302 1470.33 748.716 1462.31 747.019 1454.67L679.472 1150.51C677.917 1143.51 673.909 1137.55 668.478 1134.16L426.518 983.034C420.874 979.509 414.279 979.124 408.553 981.986L176.777 1097.83Z" stroke="url(#paint46_linear_3_108)" stroke-width="4"/>
<path opacity="0.695652" d="M170.521 1086.27C164.204 1089.03 159.447 1095.35 157.77 1103.21L96.1035 1392.32C94.5616 1399.55 95.7953 1407.29 99.4658 1413.41L256.54 1675.49C260.048 1681.34 265.44 1685.15 271.349 1685.94L528.352 1720.31C534.904 1721.19 541.357 1718.27 545.744 1712.44L708.399 1496.42C712.786 1490.59 714.587 1482.55 713.253 1474.74L660.925 1168.54C659.722 1161.5 656.086 1155.36 650.939 1151.69L420.474 987.077C415.089 983.231 408.601 982.469 402.793 985.001L170.521 1086.27Z" stroke="url(#paint47_linear_3_108)" stroke-width="4"/>
<path opacity="0.710145" d="M164.539 1076C158.055 1078.42 152.954 1084.6 150.898 1092.51L77.2932 1375.65C75.43 1382.81 76.2761 1390.62 79.6009 1396.93L221.758 1666.68C224.912 1672.66 229.994 1676.73 235.742 1677.86L486.183 1727.16C492.667 1728.44 499.265 1725.85 503.943 1720.19L673.03 1515.61C677.708 1509.95 679.903 1501.9 678.937 1493.95L641.627 1186.79C640.771 1179.73 637.513 1173.46 632.662 1169.53L414.021 992.32C408.907 988.175 402.543 987.046 396.667 989.242L164.539 1076Z" stroke="url(#paint48_linear_3_108)" stroke-width="4"/>
<path opacity="0.724638" d="M158.761 1067.03C152.114 1069.11 146.661 1075.12 144.218 1083.06L59.1777 1359.4C56.9978 1366.49 57.458 1374.32 60.434 1380.79L187.638 1657.13L187.638 1657.13C190.439 1663.21 195.204 1667.5 200.776 1668.96L444.165 1732.64C450.567 1734.31 457.306 1732.06 462.276 1726.58L637.154 1533.85C642.123 1528.38 644.717 1520.35 644.124 1512.27L621.581 1205.21C621.065 1198.18 618.182 1191.81 613.635 1187.65L407.11 998.729C402.278 994.309 396.051 992.825 390.121 994.68L158.761 1067.03Z" stroke="url(#paint49_linear_3_108)" stroke-width="4"/>
<path opacity="0.73913" d="M153.119 1059.38C146.316 1061.1 140.505 1066.93 137.666 1074.88L41.7239 1343.62C39.2327 1350.6 39.3111 1358.45 41.9376 1365.04L154.204 1646.88C156.655 1653.03 161.101 1657.53 166.484 1659.29L402.362 1736.75C408.669 1738.82 415.542 1736.92 420.804 1731.64L600.824 1551.11C606.085 1545.84 609.082 1537.84 608.866 1529.66L600.793 1223.76C600.608 1216.77 598.098 1210.34 593.858 1205.98L399.694 1006.27C395.152 1001.6 389.075 999.771 383.104 1001.28L153.119 1059.38Z" stroke="url(#paint50_linear_3_108)" stroke-width="4"/>
<path opacity="0.753623" d="M147.545 1053.05C140.592 1054.39 134.418 1060.01 131.177 1067.95L24.899 1328.36C22.1027 1335.21 21.8034 1343.03 24.0816 1349.72L121.475 1635.97C123.583 1642.17 127.709 1646.84 132.894 1648.9L360.839 1739.52C367.037 1741.99 374.037 1740.44 379.588 1735.39L564.097 1567.36C569.648 1562.3 573.053 1554.37 573.217 1546.11L579.269 1242.39C579.407 1235.48 577.261 1229.01 573.33 1224.47L391.731 1014.91C387.484 1010.01 381.568 1007.85 375.568 1009.01L147.545 1053.05Z" stroke="url(#paint51_linear_3_108)" stroke-width="4"/>
<path opacity="0.768116" d="M141.971 1048.03C134.878 1048.98 128.339 1054.37 124.689 1062.28L8.66687 1313.64C5.57277 1320.34 4.90292 1328.11 6.8356 1334.88L89.4699 1624.46C91.2431 1630.67 95.0509 1635.5 100.03 1637.84L319.655 1740.98C325.731 1743.83 332.847 1742.66 338.685 1737.85L527.031 1582.57C532.869 1577.75 536.682 1569.91 537.229 1561.6L557.018 1261.07C557.467 1254.25 555.677 1247.77 552.053 1243.08L383.178 1024.6C379.228 1019.49 373.483 1017.01 367.47 1017.82L141.971 1048.03Z" stroke="url(#paint52_linear_3_108)" stroke-width="4"/>
<path opacity="0.782609" d="M136.33 1044.32C129.109 1044.86 122.204 1049.99 118.142 1057.84L-7.00848 1299.5C-10.3925 1306.03 -11.425 1313.73 -9.8333 1320.56L58.2053 1612.39C59.6532 1618.6 63.1474 1623.55 67.9148 1626.15L278.871 1741.15C284.811 1744.39 292.032 1743.61 298.151 1739.06L489.683 1596.72C495.802 1592.17 500.025 1584.45 500.956 1576.11L534.051 1279.73C534.799 1273.04 533.353 1266.56 530.032 1261.74L373.995 1035.31C370.344 1030.01 364.779 1027.22 358.764 1027.67L136.33 1044.32Z" stroke="url(#paint53_linear_3_108)" stroke-width="4"/>
<path opacity="0.797101" d="M130.554 1041.92C123.221 1042.03 115.957 1046.87 111.478 1054.62L-22.1644 1285.98C-25.8299 1292.33 -27.2166 1299.92 -25.9605 1306.78L27.6949 1599.8C28.828 1605.99 32.0158 1611.06 36.5691 1613.9L238.543 1740.08C244.331 1743.69 251.645 1743.31 258.038 1739.05L452.111 1609.8C458.504 1605.55 463.133 1597.98 464.449 1589.63L510.378 1298.36C511.413 1291.79 510.299 1285.34 507.276 1280.41L364.144 1046.98C360.793 1041.52 355.413 1038.43 349.41 1038.52L130.554 1041.92Z" stroke="url(#paint54_linear_3_108)" stroke-width="4"/>
<path opacity="0.811594" d="M124.58 1040.79C117.152 1040.46 109.536 1044.97 104.644 1052.6L-36.8405 1273.11C-40.7778 1279.24 -42.5074 1286.72 -41.5804 1293.59L-2.04749 1586.75C-1.21809 1592.9 1.67102 1598.06 6.00846 1601.14L198.724 1737.79C204.346 1741.78 211.737 1741.81 218.393 1737.87L414.376 1621.81C421.032 1617.87 426.061 1610.48 427.761 1602.16L486.013 1316.88C487.324 1310.46 486.529 1304.06 483.797 1299.04L353.591 1059.57C350.538 1053.96 345.35 1050.58 339.373 1050.32L124.58 1040.79Z" stroke="url(#paint55_linear_3_108)" stroke-width="4"/>
<path opacity="0.826087" d="M118.346 1040.92C110.844 1040.14 102.889 1044.28 97.5852 1051.75L-51.0744 1260.91C-55.2734 1266.81 -57.3362 1274.15 -56.7317 1281.02L-31.0108 1573.29C-30.474 1579.39 -27.8766 1584.63 -23.7551 1587.92L159.465 1734.34C164.908 1738.69 172.36 1739.15 179.265 1735.55L376.533 1632.73C383.438 1629.13 388.861 1621.97 390.941 1613.69L460.969 1335.28C462.544 1329.01 462.057 1322.68 459.609 1317.57L342.303 1073.03C339.545 1067.28 334.555 1063.63 328.616 1063.01L118.346 1040.92Z" stroke="url(#paint56_linear_3_108)" stroke-width="4"/>
<path opacity="0.84058" d="M111.787 1042.29C104.236 1041.03 95.9594 1044.78 90.253 1052.03L-64.9063 1249.4C-69.3562 1255.07 -71.7405 1262.24 -71.4513 1269.09L-59.1878 1559.47C-58.9327 1565.51 -56.6173 1570.81 -52.7105 1574.31L-52.7103 1574.32L120.814 1729.77C126.064 1734.48 133.556 1735.37 140.695 1732.14L338.643 1642.56C345.781 1639.33 351.584 1632.42 354.042 1624.23L435.263 1353.49C437.091 1347.4 436.9 1341.13 434.727 1335.96L330.249 1087.31C327.784 1081.44 322.997 1077.52 317.108 1076.53L111.787 1042.29Z" stroke="url(#paint57_linear_3_108)" stroke-width="4"/>
<path opacity="0.855072" d="M104.847 1044.85C97.2728 1043.11 88.7007 1046.42 82.6032 1053.43L-78.376 1238.62C-83.0654 1244.02 -85.7609 1251.01 -85.7796 1257.82L-86.5719 1545.34C-86.5883 1551.31 -84.5468 1556.67 -80.8528 1560.37L82.8165 1724.14C87.8586 1729.18 95.3695 1730.52 102.721 1727.68L300.761 1651.31C308.113 1648.48 314.282 1641.86 317.11 1633.78L408.912 1371.49C410.984 1365.57 411.076 1359.38 409.17 1354.15L317.404 1102.34C315.228 1096.37 310.647 1092.18 304.822 1090.84L104.847 1044.85Z" stroke="url(#paint58_linear_3_108)" stroke-width="4"/>
<path opacity="0.869565" d="M97.4685 1048.58C89.9004 1046.35 81.0634 1049.18 74.5918 1055.9L-91.5234 1228.58C-96.4402 1233.69 -99.4362 1240.49 -99.7561 1247.25L-113.158 1530.95C-113.437 1536.85 -111.661 1542.27 -108.177 1546.15L45.5137 1717.48C50.3349 1722.86 57.8396 1724.65 65.3798 1722.24L262.946 1658.99C270.486 1656.57 277.001 1650.29 280.193 1642.35L381.935 1389.24C384.241 1383.5 384.607 1377.39 382.96 1372.11L303.742 1118.07C301.852 1112.01 297.481 1107.57 291.731 1105.88L97.4685 1048.58Z" stroke="url(#paint59_linear_3_108)" stroke-width="4"/>
<path opacity="0.884058" d="M89.598 1053.42C82.068 1050.69 73.0033 1053.01 66.1793 1059.41L-104.39 1219.29C-109.522 1224.1 -112.807 1230.68 -113.421 1237.39L-138.947 1516.36C-139.48 1522.18 -137.961 1527.65 -134.684 1531.71L8.94207 1709.87C13.5296 1715.56 21.002 1717.83 28.7032 1715.86L225.254 1665.61C232.955 1663.64 239.793 1657.72 243.339 1649.95L354.351 1406.69C356.885 1401.14 357.514 1395.12 356.119 1389.79L289.244 1134.45C287.635 1128.31 283.478 1123.62 277.815 1121.57L89.598 1053.42Z" stroke="url(#paint60_linear_3_108)" stroke-width="4"/>
<path opacity="0.898551" d="M81.185 1059.33C73.7274 1056.11 64.4797 1057.88 57.3307 1063.9L-117.015 1210.76C-122.349 1215.25 -125.911 1221.62 -126.813 1228.26L-163.937 1501.62C-164.717 1507.36 -163.448 1512.88 -160.374 1517.12L-26.8624 1701.36C-22.5212 1707.36 -15.111 1710.09 -7.28022 1708.59L187.736 1671.19C195.567 1669.68 202.701 1664.16 206.59 1656.59L326.183 1423.8C328.937 1418.45 329.822 1412.51 328.672 1407.14L273.889 1151.41C272.558 1145.2 268.619 1140.27 263.055 1137.87L81.185 1059.33Z" stroke="url(#paint61_linear_3_108)" stroke-width="4"/>
<path opacity="0.913043" d="M61.5413 1066.93C54.192 1063.23 44.8096 1064.43 37.368 1070.03L-140.084 1203.7C-145.605 1207.85 -149.434 1213.98 -150.619 1220.55L-198.776 1487.47C-199.797 1493.13 -198.773 1498.7 -195.9 1503.11L-72.5124 1692.71C-68.4289 1698.98 -61.1118 1702.19 -53.1862 1701.17L139.803 1676.43C147.729 1675.42 155.127 1670.33 159.346 1662.99L286.809 1441.24C289.778 1436.07 290.914 1430.23 290.002 1424.82L247.02 1169.58C245.963 1163.3 242.245 1158.14 236.792 1155.39L61.5413 1066.93Z" stroke="url(#paint62_linear_3_108)" stroke-width="4"/>
<path opacity="0.927536" d="M51.9082 1074.82C44.7041 1070.63 35.2449 1071.24 27.5487 1076.39L-152.348 1196.73C-158.043 1200.54 -162.129 1206.41 -163.592 1212.9L-222.18 1472.6C-223.44 1478.18 -222.658 1483.79 -219.981 1488.38L-106.695 1682.6C-102.88 1689.14 -95.6898 1692.81 -87.7076 1692.29L102.791 1680.01C110.773 1679.49 118.401 1674.86 122.934 1667.79L257.54 1457.58C260.72 1452.62 262.102 1446.86 261.424 1441.41L229.911 1187.52C229.124 1181.18 225.632 1175.79 220.301 1172.69L51.9082 1074.82Z" stroke="url(#paint63_linear_3_108)" stroke-width="4"/>
<path opacity="0.942029" d="M41.6069 1083.6C34.5855 1078.95 25.1084 1078.95 17.2006 1083.61L-164.491 1190.54C-170.344 1193.99 -174.677 1199.6 -176.414 1206L-244.803 1457.74C-246.298 1463.24 -245.754 1468.91 -243.273 1473.67L-140.029 1671.78C-136.494 1678.57 -129.464 1682.7 -121.466 1682.7L66.1026 1682.62C74.1006 1682.62 81.9187 1678.48 86.748 1671.69L227.757 1473.49C231.146 1468.73 232.771 1463.06 232.325 1457.56L211.909 1205.85C211.39 1199.46 208.128 1193.84 202.932 1190.4L41.6069 1083.6Z" stroke="url(#paint64_linear_3_108)" stroke-width="4"/>
<path opacity="0.956522" d="M30.6044 1093.21C23.8028 1088.12 14.3715 1087.51 6.29944 1091.64L-176.553 1185.14C-182.548 1188.21 -187.118 1193.56 -189.125 1199.85L-266.653 1442.94C-268.384 1448.37 -268.077 1454.1 -265.788 1459.03L-172.496 1660.33C-169.248 1667.34 -162.414 1671.92 -154.443 1672.44L29.7832 1684.32C37.7539 1684.84 45.7202 1681.21 50.8264 1674.74L197.487 1488.93C201.084 1484.37 202.951 1478.79 202.734 1473.23L193.009 1224.51C192.757 1218.07 189.729 1212.23 184.677 1208.45L30.6044 1093.21Z" stroke="url(#paint65_linear_3_108)" stroke-width="4"/>
<path opacity="0.971014" d="M18.8705 1103.59C12.3247 1098.1 3.00468 1096.88 -5.18011 1100.45L-188.571 1180.53C-194.692 1183.2 -199.489 1188.27 -201.764 1194.45L-287.745 1428.27C-289.713 1433.63 -289.642 1439.41 -287.546 1444.53L-204.081 1648.32C-201.128 1655.52 -194.524 1660.54 -186.625 1661.57L-6.12983 1685.15C1.76929 1686.18 9.83908 1683.08 15.2004 1676.96L166.755 1503.87C170.561 1499.52 172.672 1494.02 172.684 1488.41L173.207 1243.43C173.221 1236.95 170.432 1230.89 165.538 1226.78L18.8705 1103.59Z" stroke="url(#paint66_linear_3_108)" stroke-width="4"/>
<path opacity="0.985507" d="M6.38345 1114.68C0.127336 1108.81 -9.01558 1107 -17.2589 1109.99L-200.583 1176.7C-206.811 1178.96 -211.826 1183.73 -214.368 1189.81L-308.089 1413.77C-310.298 1419.05 -310.467 1424.91 -308.563 1430.22L-234.77 1635.81C-232.12 1643.19 -225.78 1648.62 -217.998 1650.16L-41.5992 1685.13C-33.8164 1686.68 -25.6897 1684.12 -20.0974 1678.37L135.59 1518.28C139.606 1514.15 141.965 1508.72 142.208 1503.05L152.505 1262.54C152.785 1256.02 150.241 1249.76 145.514 1245.32L6.38345 1114.68Z" stroke="url(#paint67_linear_3_108)" stroke-width="4"/>
<path d="M-6.87564 1126.4C-12.811 1120.19 -21.7132 1117.81 -29.9588 1120.22L-212.626 1173.63C-218.943 1175.48 -224.166 1179.95 -226.974 1185.9L-327.704 1399.5C-330.159 1404.71 -330.573 1410.65 -328.863 1416.14L-264.557 1622.88C-262.213 1630.41 -256.17 1636.22 -248.548 1638.26L-76.593 1684.34C-68.9709 1686.38 -60.8338 1684.37 -55.0366 1679.02L104.021 1532.13C108.25 1528.23 110.861 1522.88 111.338 1517.14L130.905 1281.79C131.45 1275.23 129.159 1268.75 124.611 1264L-6.87564 1126.4Z" stroke="url(#paint68_linear_3_108)" stroke-width="4"/>
<defs>
<linearGradient id="paint0_linear_3_108" x1="1555.35" y1="1990.89" x2="1188.48" y2="555.874" gradientUnits="userSpaceOnUse">
<stop stop-color="#FF1CF7"/>
<stop offset="1" stop-color="#00F0FF"/>
</linearGradient>
<linearGradient id="paint1_linear_3_108" x1="1500.31" y1="1993.48" x2="1220.98" y2="537.008" gradientUnits="userSpaceOnUse">
<stop stop-color="#FF1CF7"/>
<stop offset="1" stop-color="#00F0FF"/>
</linearGradient>
<linearGradient id="paint2_linear_3_108" x1="1445.76" y1="1993.98" x2="1257.16" y2="522.665" gradientUnits="userSpaceOnUse">
<stop stop-color="#FF1CF7"/>
<stop offset="1" stop-color="#00F0FF"/>
</linearGradient>
<linearGradient id="paint3_linear_3_108" x1="1391.78" y1="1992.43" x2="1296.4" y2="513.558" gradientUnits="userSpaceOnUse">
<stop stop-color="#FF1CF7"/>
<stop offset="1" stop-color="#00F0FF"/>
</linearGradient>
<linearGradient id="paint4_linear_3_108" x1="1338.47" y1="1988.88" x2="1337.9" y2="510.299" gradientUnits="userSpaceOnUse">
<stop stop-color="#FF1CF7"/>
<stop offset="1" stop-color="#00F0FF"/>
</linearGradient>
<linearGradient id="paint5_linear_3_108" x1="1285.89" y1="1983.37" x2="1380.75" y2="513.355" gradientUnits="userSpaceOnUse">
<stop stop-color="#FF1CF7"/>
<stop offset="1" stop-color="#00F0FF"/>
</linearGradient>
<linearGradient id="paint6_linear_3_108" x1="1234.14" y1="1975.96" x2="1423.91" y2="523.013" gradientUnits="userSpaceOnUse">
<stop stop-color="#FF1CF7"/>
<stop offset="1" stop-color="#00F0FF"/>
</linearGradient>
<linearGradient id="paint7_linear_3_108" x1="1183.27" y1="1966.72" x2="1466.27" y2="539.354" gradientUnits="userSpaceOnUse">
<stop stop-color="#FF1CF7"/>
<stop offset="1" stop-color="#00F0FF"/>
</linearGradient>
<linearGradient id="paint8_linear_3_108" x1="1133.36" y1="1955.71" x2="1506.74" y2="562.232" gradientUnits="userSpaceOnUse">
<stop stop-color="#FF1CF7"/>
<stop offset="1" stop-color="#00F0FF"/>
</linearGradient>
<linearGradient id="paint9_linear_3_108" x1="1084.47" y1="1943" x2="1544.26" y2="591.284" gradientUnits="userSpaceOnUse">
<stop stop-color="#FF1CF7"/>
<stop offset="1" stop-color="#00F0FF"/>
</linearGradient>
<linearGradient id="paint10_linear_3_108" x1="1036.67" y1="1928.67" x2="1577.84" y2="625.939" gradientUnits="userSpaceOnUse">
<stop stop-color="#FF1CF7"/>
<stop offset="1" stop-color="#00F0FF"/>
</linearGradient>
<linearGradient id="paint11_linear_3_108" x1="990.001" y1="1912.79" x2="1606.69" y2="665.452" gradientUnits="userSpaceOnUse">
<stop stop-color="#FF1CF7"/>
<stop offset="1" stop-color="#00F0FF"/>
</linearGradient>
<linearGradient id="paint12_linear_3_108" x1="944.522" y1="1895.45" x2="1630.15" y2="708.949" gradientUnits="userSpaceOnUse">
<stop stop-color="#FF1CF7"/>
<stop offset="1" stop-color="#00F0FF"/>
</linearGradient>
<linearGradient id="paint13_linear_3_108" x1="900.279" y1="1876.73" x2="1647.79" y2="755.474" gradientUnits="userSpaceOnUse">
<stop stop-color="#FF1CF7"/>
<stop offset="1" stop-color="#00F0FF"/>
</linearGradient>
<linearGradient id="paint14_linear_3_108" x1="857.313" y1="1856.73" x2="1659.37" y2="804.041" gradientUnits="userSpaceOnUse">
<stop stop-color="#FF1CF7"/>
<stop offset="1" stop-color="#00F0FF"/>
</linearGradient>
<linearGradient id="paint15_linear_3_108" x1="815.663" y1="1835.53" x2="1664.86" y2="853.683" gradientUnits="userSpaceOnUse">
<stop stop-color="#FF1CF7"/>
<stop offset="1" stop-color="#00F0FF"/>
</linearGradient>
<linearGradient id="paint16_linear_3_108" x1="775.36" y1="1813.22" x2="1664.4" y2="903.492" gradientUnits="userSpaceOnUse">
<stop stop-color="#FF1CF7"/>
<stop offset="1" stop-color="#00F0FF"/>
</linearGradient>
<linearGradient id="paint17_linear_3_108" x1="736.431" y1="1789.92" x2="1658.27" y2="952.652" gradientUnits="userSpaceOnUse">
<stop stop-color="#FF1CF7"/>
<stop offset="1" stop-color="#00F0FF"/>
</linearGradient>
<linearGradient id="paint18_linear_3_108" x1="698.899" y1="1765.7" x2="1646.89" y2="1000.46" gradientUnits="userSpaceOnUse">
<stop stop-color="#FF1CF7"/>
<stop offset="1" stop-color="#00F0FF"/>
</linearGradient>
<linearGradient id="paint19_linear_3_108" x1="662.782" y1="1740.67" x2="1630.76" y2="1046.34" gradientUnits="userSpaceOnUse">
<stop stop-color="#FF1CF7"/>
<stop offset="1" stop-color="#00F0FF"/>
</linearGradient>
<linearGradient id="paint20_linear_3_108" x1="628.093" y1="1714.93" x2="1610.41" y2="1089.84" gradientUnits="userSpaceOnUse">
<stop stop-color="#FF1CF7"/>
<stop offset="1" stop-color="#00F0FF"/>
</linearGradient>
<linearGradient id="paint21_linear_3_108" x1="594.839" y1="1688.59" x2="1586.41" y2="1130.63" gradientUnits="userSpaceOnUse">
<stop stop-color="#FF1CF7"/>
<stop offset="1" stop-color="#00F0FF"/>
</linearGradient>
<linearGradient id="paint22_linear_3_108" x1="563.024" y1="1661.73" x2="1559.34" y2="1168.51" gradientUnits="userSpaceOnUse">
<stop stop-color="#FF1CF7"/>
<stop offset="1" stop-color="#00F0FF"/>
</linearGradient>
<linearGradient id="paint23_linear_3_108" x1="532.646" y1="1634.47" x2="1529.74" y2="1203.37" gradientUnits="userSpaceOnUse">
<stop stop-color="#FF1CF7"/>
<stop offset="1" stop-color="#00F0FF"/>
</linearGradient>
<linearGradient id="paint24_linear_3_108" x1="503.698" y1="1606.91" x2="1498.14" y2="1235.19" gradientUnits="userSpaceOnUse">
<stop stop-color="#FF1CF7"/>
<stop offset="1" stop-color="#00F0FF"/>
</linearGradient>
<linearGradient id="paint25_linear_3_108" x1="476.169" y1="1579.13" x2="1465" y2="1264.01" gradientUnits="userSpaceOnUse">
<stop stop-color="#FF1CF7"/>
<stop offset="1" stop-color="#00F0FF"/>
</linearGradient>
<linearGradient id="paint26_linear_3_108" x1="450.045" y1="1551.24" x2="1430.75" y2="1289.95" gradientUnits="userSpaceOnUse">
<stop stop-color="#FF1CF7"/>
<stop offset="1" stop-color="#00F0FF"/>
</linearGradient>
<linearGradient id="paint27_linear_3_108" x1="425.306" y1="1523.35" x2="1395.78" y2="1313.17" gradientUnits="userSpaceOnUse">
<stop stop-color="#FF1CF7"/>
<stop offset="1" stop-color="#00F0FF"/>
</linearGradient>
<linearGradient id="paint28_linear_3_108" x1="401.926" y1="1495.54" x2="1360.4" y2="1333.86" gradientUnits="userSpaceOnUse">
<stop stop-color="#FF1CF7"/>
<stop offset="1" stop-color="#00F0FF"/>
</linearGradient>
<linearGradient id="paint29_linear_3_108" x1="379.879" y1="1467.9" x2="1324.9" y2="1352.24" gradientUnits="userSpaceOnUse">
<stop stop-color="#FF1CF7"/>
<stop offset="1" stop-color="#00F0FF"/>
</linearGradient>
<linearGradient id="paint30_linear_3_108" x1="359.131" y1="1440.54" x2="1289.5" y2="1368.54" gradientUnits="userSpaceOnUse">
<stop stop-color="#FF1CF7"/>
<stop offset="1" stop-color="#00F0FF"/>
</linearGradient>
<linearGradient id="paint31_linear_3_108" x1="339.647" y1="1413.53" x2="1254.39" y2="1383" gradientUnits="userSpaceOnUse">
<stop stop-color="#FF1CF7"/>
<stop offset="1" stop-color="#00F0FF"/>
</linearGradient>
<linearGradient id="paint32_linear_3_108" x1="321.388" y1="1386.96" x2="1219.7" y2="1395.86" gradientUnits="userSpaceOnUse">
<stop stop-color="#FF1CF7"/>
<stop offset="1" stop-color="#00F0FF"/>
</linearGradient>
<linearGradient id="paint33_linear_3_108" x1="304.31" y1="1360.92" x2="1185.55" y2="1407.38" gradientUnits="userSpaceOnUse">
<stop stop-color="#FF1CF7"/>
<stop offset="1" stop-color="#00F0FF"/>
</linearGradient>
<linearGradient id="paint34_linear_3_108" x1="288.368" y1="1335.49" x2="1152" y2="1417.79" gradientUnits="userSpaceOnUse">
<stop stop-color="#FF1CF7"/>
<stop offset="1" stop-color="#00F0FF"/>
</linearGradient>
<linearGradient id="paint35_linear_3_108" x1="273.512" y1="1310.74" x2="1119.09" y2="1427.31" gradientUnits="userSpaceOnUse">
<stop stop-color="#FF1CF7"/>
<stop offset="1" stop-color="#00F0FF"/>
</linearGradient>
<linearGradient id="paint36_linear_3_108" x1="259.69" y1="1286.74" x2="1086.83" y2="1436.18" gradientUnits="userSpaceOnUse">
<stop stop-color="#FF1CF7"/>
<stop offset="1" stop-color="#00F0FF"/>
</linearGradient>
<linearGradient id="paint37_linear_3_108" x1="246.848" y1="1263.57" x2="1055.22" y2="1444.6" gradientUnits="userSpaceOnUse">
<stop stop-color="#FF1CF7"/>
<stop offset="1" stop-color="#00F0FF"/>
</linearGradient>
<linearGradient id="paint38_linear_3_108" x1="234.928" y1="1241.28" x2="1024.2" y2="1452.77" gradientUnits="userSpaceOnUse">
<stop stop-color="#FF1CF7"/>
<stop offset="1" stop-color="#00F0FF"/>
</linearGradient>
<linearGradient id="paint39_linear_3_108" x1="223.872" y1="1219.94" x2="993.735" y2="1460.86" gradientUnits="userSpaceOnUse">
<stop stop-color="#FF1CF7"/>
<stop offset="1" stop-color="#00F0FF"/>
</linearGradient>
<linearGradient id="paint40_linear_3_108" x1="213.619" y1="1199.61" x2="963.733" y2="1469.05" gradientUnits="userSpaceOnUse">
<stop stop-color="#FF1CF7"/>
<stop offset="1" stop-color="#00F0FF"/>
</linearGradient>
<linearGradient id="paint41_linear_3_108" x1="204.106" y1="1180.32" x2="934.104" y2="1477.49" gradientUnits="userSpaceOnUse">
<stop stop-color="#FF1CF7"/>
<stop offset="1" stop-color="#00F0FF"/>
</linearGradient>
<linearGradient id="paint42_linear_3_108" x1="195.27" y1="1162.14" x2="904.739" y2="1486.31" gradientUnits="userSpaceOnUse">
<stop stop-color="#FF1CF7"/>
<stop offset="1" stop-color="#00F0FF"/>
</linearGradient>
<linearGradient id="paint43_linear_3_108" x1="187.045" y1="1145.09" x2="875.514" y2="1495.62" gradientUnits="userSpaceOnUse">
<stop stop-color="#FF1CF7"/>
<stop offset="1" stop-color="#00F0FF"/>
</linearGradient>
<linearGradient id="paint44_linear_3_108" x1="179.365" y1="1129.23" x2="846.291" y2="1505.52" gradientUnits="userSpaceOnUse">
<stop stop-color="#FF1CF7"/>
<stop offset="1" stop-color="#00F0FF"/>
</linearGradient>
<linearGradient id="paint45_linear_3_108" x1="172.164" y1="1114.57" x2="816.924" y2="1516.08" gradientUnits="userSpaceOnUse">
<stop stop-color="#FF1CF7"/>
<stop offset="1" stop-color="#00F0FF"/>
</linearGradient>
<linearGradient id="paint46_linear_3_108" x1="165.375" y1="1101.16" x2="787.252" y2="1527.37" gradientUnits="userSpaceOnUse">
<stop stop-color="#FF1CF7"/>
<stop offset="1" stop-color="#00F0FF"/>
</linearGradient>
<linearGradient id="paint47_linear_3_108" x1="158.93" y1="1089" x2="757.109" y2="1539.4" gradientUnits="userSpaceOnUse">
<stop stop-color="#FF1CF7"/>
<stop offset="1" stop-color="#00F0FF"/>
</linearGradient>
<linearGradient id="paint48_linear_3_108" x1="152.763" y1="1078.11" x2="726.32" y2="1552.17" gradientUnits="userSpaceOnUse">
<stop stop-color="#FF1CF7"/>
<stop offset="1" stop-color="#00F0FF"/>
</linearGradient>
<linearGradient id="paint49_linear_3_108" x1="146.806" y1="1068.52" x2="694.707" y2="1565.68" gradientUnits="userSpaceOnUse">
<stop stop-color="#FF1CF7"/>
<stop offset="1" stop-color="#00F0FF"/>
</linearGradient>
<linearGradient id="paint50_linear_3_108" x1="140.994" y1="1060.22" x2="662.09" y2="1579.85" gradientUnits="userSpaceOnUse">
<stop stop-color="#FF1CF7"/>
<stop offset="1" stop-color="#00F0FF"/>
</linearGradient>
<linearGradient id="paint51_linear_3_108" x1="135.262" y1="1053.22" x2="628.291" y2="1594.6" gradientUnits="userSpaceOnUse">
<stop stop-color="#FF1CF7"/>
<stop offset="1" stop-color="#00F0FF"/>
</linearGradient>
<linearGradient id="paint52_linear_3_108" x1="129.544" y1="1047.51" x2="593.137" y2="1609.8" gradientUnits="userSpaceOnUse">
<stop stop-color="#FF1CF7"/>
<stop offset="1" stop-color="#00F0FF"/>
</linearGradient>
<linearGradient id="paint53_linear_3_108" x1="123.778" y1="1043.08" x2="556.47" y2="1625.31" gradientUnits="userSpaceOnUse">
<stop stop-color="#FF1CF7"/>
<stop offset="1" stop-color="#00F0FF"/>
</linearGradient>
<linearGradient id="paint54_linear_3_108" x1="117.903" y1="1039.94" x2="518.146" y2="1640.93" gradientUnits="userSpaceOnUse">
<stop stop-color="#FF1CF7"/>
<stop offset="1" stop-color="#00F0FF"/>
</linearGradient>
<linearGradient id="paint55_linear_3_108" x1="111.858" y1="1038.05" x2="478.049" y2="1656.42" gradientUnits="userSpaceOnUse">
<stop stop-color="#FF1CF7"/>
<stop offset="1" stop-color="#00F0FF"/>
</linearGradient>
<linearGradient id="paint56_linear_3_108" x1="105.585" y1="1037.4" x2="436.096" y2="1671.51" gradientUnits="userSpaceOnUse">
<stop stop-color="#FF1CF7"/>
<stop offset="1" stop-color="#00F0FF"/>
</linearGradient>
<linearGradient id="paint57_linear_3_108" x1="99.0286" y1="1037.97" x2="392.246" y2="1685.92" gradientUnits="userSpaceOnUse">
<stop stop-color="#FF1CF7"/>
<stop offset="1" stop-color="#00F0FF"/>
</linearGradient>
<linearGradient id="paint58_linear_3_108" x1="92.1347" y1="1039.71" x2="346.508" y2="1699.32" gradientUnits="userSpaceOnUse">
<stop stop-color="#FF1CF7"/>
<stop offset="1" stop-color="#00F0FF"/>
</linearGradient>
<linearGradient id="paint59_linear_3_108" x1="84.8519" y1="1042.61" x2="298.954" y2="1711.36" gradientUnits="userSpaceOnUse">
<stop stop-color="#FF1CF7"/>
<stop offset="1" stop-color="#00F0FF"/>
</linearGradient>
<linearGradient id="paint60_linear_3_108" x1="77.1315" y1="1046.63" x2="249.719" y2="1721.71" gradientUnits="userSpaceOnUse">
<stop stop-color="#FF1CF7"/>
<stop offset="1" stop-color="#00F0FF"/>
</linearGradient>
<linearGradient id="paint61_linear_3_108" x1="68.9274" y1="1051.71" x2="199.014" y2="1730.02" gradientUnits="userSpaceOnUse">
<stop stop-color="#FF1CF7"/>
<stop offset="1" stop-color="#00F0FF"/>
</linearGradient>
<linearGradient id="paint62_linear_3_108" x1="49.5531" y1="1058.52" x2="136.478" y2="1736.67" gradientUnits="userSpaceOnUse">
<stop stop-color="#FF1CF7"/>
<stop offset="1" stop-color="#00F0FF"/>
</linearGradient>
<linearGradient id="paint63_linear_3_108" x1="40.255" y1="1065.61" x2="83.7517" y2="1740.02" gradientUnits="userSpaceOnUse">
<stop stop-color="#FF1CF7"/>
<stop offset="1" stop-color="#00F0FF"/>
</linearGradient>
<linearGradient id="paint64_linear_3_108" x1="30.3523" y1="1073.65" x2="30.6061" y2="1740.56" gradientUnits="userSpaceOnUse">
<stop stop-color="#FF1CF7"/>
<stop offset="1" stop-color="#00F0FF"/>
</linearGradient>
<linearGradient id="paint65_linear_3_108" x1="19.8117" y1="1082.56" x2="-22.4931" y2="1738.16" gradientUnits="userSpaceOnUse">
<stop stop-color="#FF1CF7"/>
<stop offset="1" stop-color="#00F0FF"/>
</linearGradient>
<linearGradient id="paint66_linear_3_108" x1="8.60143" y1="1092.3" x2="-75.0524" y2="1732.79" gradientUnits="userSpaceOnUse">
<stop stop-color="#FF1CF7"/>
<stop offset="1" stop-color="#00F0FF"/>
</linearGradient>
<linearGradient id="paint67_linear_3_108" x1="-3.30473" y1="1102.81" x2="-126.569" y2="1724.52" gradientUnits="userSpaceOnUse">
<stop stop-color="#FF1CF7"/>
<stop offset="1" stop-color="#00F0FF"/>
</linearGradient>
<linearGradient id="paint68_linear_3_108" x1="-15.9314" y1="1114.03" x2="-176.56" y2="1713.51" gradientUnits="userSpaceOnUse">
<stop stop-color="#FF1CF7"/>
<stop offset="1" stop-color="#00F0FF"/>
</linearGradient>
</defs>
</svg>
